<svg xmlns="http://www.w3.org/2000/svg" width="58" height="38" viewBox="0 0 58 38">
  <defs>
    <style>
      .cls-1 {
        fill-rule: evenodd;
      }
    </style>
  </defs>
  <path id="Credit_card" data-name="Credit card" class="cls-1" d="M560.958,1010H515.042a6,6,0,0,0-6.042,5.94v26.12a6,6,0,0,0,6.042,5.94h45.916a6,6,0,0,0,6.042-5.94v-26.12A6,6,0,0,0,560.958,1010Zm3.625,32.06a3.6,3.6,0,0,1-3.625,3.57H515.042a3.6,3.6,0,0,1-3.625-3.57v-26.12a3.6,3.6,0,0,1,3.625-3.57h45.916a3.6,3.6,0,0,1,3.625,3.57v26.12h0Zm1.209-24.94H510.208a1.2,1.2,0,0,0-1.208,1.19v7.13a1.2,1.2,0,0,0,1.208,1.18h55.584a1.2,1.2,0,0,0,1.208-1.18v-7.13A1.2,1.2,0,0,0,565.792,1017.12Zm-1.209,7.13H511.417v-4.75h53.166v4.75h0Zm-32.625,9.5h-14.5a1.185,1.185,0,1,0,0,2.37h14.5A1.185,1.185,0,1,0,531.958,1033.75Zm0,4.75h-14.5a1.19,1.19,0,1,0,0,2.38h14.5A1.19,1.19,0,1,0,531.958,1038.5Zm24.167-7.13h-2.417a3.6,3.6,0,0,0-3.625,3.57v2.37a3.593,3.593,0,0,0,3.625,3.56h2.417a3.592,3.592,0,0,0,3.625-3.56v-2.37A3.6,3.6,0,0,0,556.125,1031.37Zm1.208,5.94a1.2,1.2,0,0,1-1.208,1.19h-2.417a1.2,1.2,0,0,1-1.208-1.19v-2.37a1.2,1.2,0,0,1,1.208-1.19h2.417a1.2,1.2,0,0,1,1.208,1.19v2.37Z" transform="translate(-509 -1010)"/>
</svg>
