<svg xmlns="http://www.w3.org/2000/svg" width="54" height="40" viewBox="0 0 54 40">
  <defs>
    <style>
      .cls-1 {
        fill-rule: evenodd;
      }
    </style>
  </defs>
  <path id="Mailbox" class="cls-1" d="M1142.87,1021.33h-33.75a10.075,10.075,0,0,0-10.12,10v13.34a3.359,3.359,0,0,0,3.38,3.33h47.25a3.357,3.357,0,0,0,3.37-3.33v-13.34A10.077,10.077,0,0,0,1142.87,1021.33Zm7.88,23.34a1.116,1.116,0,0,1-1.12,1.11h-47.25a1.118,1.118,0,0,1-1.13-1.11v-13.34a7.825,7.825,0,0,1,7.87-7.77h33.75a7.828,7.828,0,0,1,7.88,7.77v13.34Zm-41.63-23.34a1.115,1.115,0,1,0,0,2.23,7.828,7.828,0,0,1,7.88,7.77v13.34a1.118,1.118,0,0,1-1.13,1.11,1.11,1.11,0,1,0,0,2.22,3.359,3.359,0,0,0,3.38-3.33v-13.34A10.077,10.077,0,0,0,1109.12,1021.33Zm29.25-13.33h-11.24a1.118,1.118,0,0,0-1.13,1.11v22.22a1.125,1.125,0,0,0,2.25,0v-14.44h10.13a1.116,1.116,0,0,0,1.12-1.11v-6.67A1.118,1.118,0,0,0,1138.37,1008Zm-1.12,6.67h-9v-4.45h9v4.45Z" transform="translate(-1099 -1008)"/>
</svg>
