<svg xmlns="http://www.w3.org/2000/svg" width="58" height="36" viewBox="0 0 58 36">
  <defs>
    <style>
      .cls-1 {
        fill-rule: evenodd;
      }
    </style>
  </defs>
  <path id="Shipped_копия_2" data-name="Shipped копия 2" class="cls-1" d="M852.94,1025.26l-1.5-5.89a0.906,0.906,0,0,0,.719-0.87v-0.96a3.784,3.784,0,0,0-3.815-3.74H841.5v-1.96a1.864,1.864,0,0,0-1.877-1.84H804.751a1.864,1.864,0,0,0-1.876,1.84V1028a0.908,0.908,0,0,0,1.816,0v-16.16a0.062,0.062,0,0,1,.06-0.06h34.873a0.062,0.062,0,0,1,.061.06V1028a0.908,0.908,0,0,0,1.816,0v-1.01h10.718a2.966,2.966,0,0,1,2.822,2.02h-2.824a0.9,0.9,0,0,0-.908.89v1.9a2.82,2.82,0,0,0,2.845,2.79h1.03v3.93h-2.375a5.782,5.782,0,0,0-10.871,0H841.5v-6.72a0.909,0.909,0,0,0-1.817,0v6.71H820.843a5.787,5.787,0,0,0-10.871,0h-5.221a0.054,0.054,0,0,1-.06-0.05v-1.96h3.935a0.9,0.9,0,1,0,0-1.79h-8.718a0.9,0.9,0,1,0,0,1.79h2.967v1.96a1.864,1.864,0,0,0,1.877,1.84h4.905c0,0.02,0,.04,0,0.06a5.753,5.753,0,0,0,11.5,0c0-.02,0-0.04,0-0.06h20.467c0,0.02,0,.04,0,0.06a5.753,5.753,0,0,0,11.5,0c0-.02,0-0.04,0-0.06h2.969a0.9,0.9,0,0,0,.908-0.89v-9.51A4.725,4.725,0,0,0,852.94,1025.26Zm-11.439-9.68h6.841a1.982,1.982,0,0,1,2,1.96v0.06H841.5v-2.02Zm0,9.63v-5.82h8.07l1.483,5.82H841.5Zm-26.094,19.01a3.861,3.861,0,1,1,3.935-3.86A3.9,3.9,0,0,1,815.407,1044.22Zm31.967,0a3.861,3.861,0,1,1,3.935-3.86A3.9,3.9,0,0,1,847.374,1044.22Zm7.81-11.41h-1.03a1.019,1.019,0,0,1-1.029-1.01v-1.01h2.059v2.02h0Zm-39.777,5.71a1.84,1.84,0,1,0,1.877,1.84A1.857,1.857,0,0,0,815.407,1038.52Zm31.967,0a1.84,1.84,0,1,0,1.877,1.84A1.857,1.857,0,0,0,847.374,1038.52Zm-10.656-3.81H823.157a0.9,0.9,0,1,0,0,1.79h13.561A0.9,0.9,0,1,0,836.718,1034.71Zm-23.248-3.8H801.846a0.89,0.89,0,1,0,0,1.78H813.47A0.89,0.89,0,1,0,813.47,1030.91Zm17.11-12.09a0.918,0.918,0,0,0-1.285,0l-8.076,7.92-4.2-4.12a0.916,0.916,0,0,0-1.284,0,0.878,0.878,0,0,0,0,1.26l4.843,4.75a0.923,0.923,0,0,0,1.284,0l8.718-8.55A0.879,0.879,0,0,0,830.58,1018.82Z" transform="translate(-799 -1010)"/>
</svg>
