<svg xmlns="http://www.w3.org/2000/svg" width="54" height="50" viewBox="0 0 54 50">
  <defs>
    <style>
      .cls-1 {
        fill-rule: evenodd;
      }
    </style>
  </defs>
  <path id="Shopping_cart" data-name="Shopping cart" class="cls-1" d="M233.644,1046.5a4.75,4.75,0,1,0,4.749,4.75A4.754,4.754,0,0,0,233.644,1046.5Zm0,6.85a2.1,2.1,0,1,1,2.1-2.1A2.1,2.1,0,0,1,233.644,1053.35Zm16.659-6.85a4.75,4.75,0,1,0,4.749,4.75A4.755,4.755,0,0,0,250.3,1046.5Zm0,6.85a2.1,2.1,0,1,1,2.1-2.1A2.1,2.1,0,0,1,250.3,1053.35Zm1.169-31.87h-19a1.325,1.325,0,1,0,0,2.65h19A1.325,1.325,0,1,0,251.472,1021.48Zm-1.034,6.89H233.505a1.325,1.325,0,1,0,0,2.65h16.933A1.325,1.325,0,1,0,250.438,1028.37Zm13.967-12.8a2.644,2.644,0,0,0-2.055-.98h-41.3l-0.834-4.05a2.644,2.644,0,0,0-1.542-1.9l-5.819-2.53a1.329,1.329,0,0,0-1.056,2.44l5.819,2.52,6.416,31.16a2.661,2.661,0,0,0,2.6,2.12H258.4a1.325,1.325,0,1,0,0-2.65H226.631l-0.78-3.79h32.79a2.66,2.66,0,0,0,2.6-2.12l3.709-18.01A2.633,2.633,0,0,0,264.4,1015.57Zm-5.764,19.68H225.305l-3.709-18.01H262.35Z" transform="translate(-211 -1006)"/>
</svg>
