<svg xmlns="http://www.w3.org/2000/svg" width="72" height="77" viewBox="0 0 72 77">
  <defs>
    <style>
      .cls-1 {
        fill-rule: evenodd;
      }
    </style>
  </defs>
  <path id="Forma_1" data-name="Forma 1" class="cls-1" d="M1096.22,234.375h-2.9v-2.86a1.309,1.309,0,0,0-1.32-1.3h-35.25a1.307,1.307,0,0,0-1.31,1.3V242.87A14.226,14.226,0,0,0,1069.73,257h9.3a14.325,14.325,0,0,0,10.88-4.987l6.63-3.24a9.617,9.617,0,0,0,5.46-8.688A5.75,5.75,0,0,0,1096.22,234.375Zm-5.53,5.77h-32.62v-1.214h32.62v1.214Zm0-7.33v3.516h-32.62v-3.516h32.62ZM1079.03,254.4h-9.3a11.608,11.608,0,0,1-11.66-11.529v-0.124h32.62v0.124A11.607,11.607,0,0,1,1079.03,254.4Zm16.34-7.957-2.99,1.465a14.051,14.051,0,0,0,.94-5.037v-5.894h2.9a3.131,3.131,0,0,1,3.15,3.109A7.035,7.035,0,0,1,1095.37,246.442Zm-40.84,2.545h-21.9V192.555h39.52v33.959a1.315,1.315,0,0,0,2.63,0V191.255a1.307,1.307,0,0,0-1.31-1.3h-42.15a1.309,1.309,0,0,0-1.32,1.3v59.032a1.31,1.31,0,0,0,1.32,1.3h23.21A1.3,1.3,0,1,0,1054.53,248.987Zm-3.75-51.655a1.309,1.309,0,0,0-1.32-1.3h-12a1.307,1.307,0,0,0-1.31,1.3v9.886a1.308,1.308,0,0,0,1.31,1.3h12a1.31,1.31,0,0,0,1.32-1.3v-9.886Zm-2.63,8.586h-9.37v-7.286h9.37v7.286Zm1.31,5.4h-12a1.3,1.3,0,1,0,0,2.6h12A1.3,1.3,0,1,0,1049.46,211.321Zm0,5.12h-12a1.3,1.3,0,1,0,0,2.6h12A1.3,1.3,0,1,0,1049.46,216.441Zm0,5.12h-12a1.3,1.3,0,1,0,0,2.6h12A1.3,1.3,0,1,0,1049.46,221.561Zm0,5.12h-12a1.3,1.3,0,1,0,0,2.6h12A1.3,1.3,0,1,0,1049.46,226.681Zm0,5.121h-12a1.3,1.3,0,1,0,0,2.6h12A1.3,1.3,0,1,0,1049.46,231.8Zm0,5.12h-12a1.3,1.3,0,1,0,0,2.6h12A1.3,1.3,0,1,0,1049.46,236.922Zm0,5.12h-12a1.3,1.3,0,1,0,0,2.6h12A1.3,1.3,0,1,0,1049.46,242.042Zm17.86-46.01h-12a1.3,1.3,0,1,0,0,2.6h12A1.3,1.3,0,1,0,1067.32,196.032Zm0,5.12h-12a1.3,1.3,0,1,0,0,2.6h12A1.3,1.3,0,1,0,1067.32,201.152Zm0,5.12h-12a1.3,1.3,0,1,0,0,2.6h12A1.3,1.3,0,1,0,1067.32,206.272Zm0,5.12h-12a1.3,1.3,0,1,0,0,2.6h12A1.3,1.3,0,1,0,1067.32,211.392Zm0,5.393h-12a1.31,1.31,0,0,0-1.32,1.3v8.428a1.309,1.309,0,0,0,1.32,1.3h12a1.309,1.309,0,0,0,1.32-1.3v-8.428A1.31,1.31,0,0,0,1067.32,216.785Zm-1.31,8.428h-9.38v-5.827h9.38v5.827Zm5.13-37.57a1.324,1.324,0,0,0,1.83-.329,10.95,10.95,0,1,1,4.79,16.273,1.315,1.315,0,0,0-1.72.691,1.289,1.289,0,0,0,.7,1.7,13.509,13.509,0,1,0-5.93-20.148A1.282,1.282,0,0,0,1071.14,187.643Zm6.5,7.18h4.42a1.309,1.309,0,0,0,1.32-1.3v-4.178a1.315,1.315,0,0,0-2.63,0v2.877h-3.11A1.3,1.3,0,1,0,1077.64,194.823Z" transform="translate(-1030 -180)"/>
</svg>
